<?xml version="1.0" standalone="no"?><!DOCTYPE svg PUBLIC "-//W3C//DTD SVG 1.1//EN" "http://www.w3.org/Graphics/SVG/1.1/DTD/svg11.dtd"><svg t="1604818065335" class="icon" viewBox="0 0 1024 1024" version="1.1" xmlns="http://www.w3.org/2000/svg" p-id="22858" xmlns:xlink="http://www.w3.org/1999/xlink" width="200" height="200"><defs><style type="text/css"></style></defs><path d="M129.73853 45.390071c-34.496454 0-67.177305 0-99.858156 0C13.539949 45.390071 0.830729 41.758865 0.830729 21.787234 0.830729 3.631206 13.539949 0 29.880374 0c36.312057 0 70.808511 0 107.120567 0 19.971631 0 30.865248 7.262411 36.312057 27.234043 18.156028 67.177305 36.312057 136.170213 54.468085 203.347518 1.815603 5.446809 3.631206 10.893617 5.446809 19.971631 9.078014 0 16.340426 0 25.41844 0 241.475177 0 482.950355 0 724.425532 0 39.943262 0 45.390071 7.262411 36.312057 47.205674-34.496454 143.432624-70.808511 285.049645-105.304965 428.48227-5.446809 23.602837-16.340426 30.865248-39.943262 30.865248-176.113475 0-354.042553 0-530.156028 0-29.049645 0-32.680851-3.631206-39.943262-32.680851-56.283688-219.687943-112.567376-439.375887-168.851064-659.06383C133.369736 58.099291 131.554133 52.652482 129.73853 45.390071zM245.937112 295.943262c0 5.446809 1.815603 9.078014 1.815603 10.893617 30.865248 127.092199 63.546099 256 94.411348 383.092199 3.631206 16.340426 10.893617 21.787234 27.234043 19.971631 159.77305 0 321.361702 0 481.134752 0 7.262411 0 12.70922 0 21.787234-1.815603 34.496454-137.985816 67.177305-274.156028 101.673759-413.957447C728.887467 295.943262 487.412289 295.943262 245.937112 295.943262z" p-id="22859"></path><path d="M667.15697 920.510638c0-56.283688 45.390071-101.673759 101.673759-101.673759 54.468085 0 101.673759 47.205674 101.673759 101.673759 0 56.283688-47.205674 103.489362-103.489362 101.673759C712.547041 1022.184397 667.15697 976.794326 667.15697 920.510638zM768.830729 978.609929c29.049645 0 56.283688-27.234043 58.099291-56.283688 0-29.049645-27.234043-56.283688-56.283688-58.099291-29.049645 0-56.283688 27.234043-58.099291 56.283688C712.547041 951.375887 737.965481 978.609929 768.830729 978.609929z" p-id="22860"></path><path d="M345.795268 920.510638c0-56.283688 45.390071-101.673759 101.673759-101.673759 54.468085 0 101.673759 47.205674 101.673759 101.673759 0 56.283688-47.205674 103.489362-103.489362 101.673759C391.185339 1022.184397 345.795268 976.794326 345.795268 920.510638zM447.469027 978.609929c30.865248 0 56.283688-27.234043 56.283688-56.283688 0-30.865248-25.41844-56.283688-56.283688-56.283688-29.049645 0-56.283688 27.234043-56.283688 56.283688C391.185339 951.375887 418.419382 978.609929 447.469027 978.609929z" p-id="22861"></path></svg>