<?xml version="1.0" standalone="no"?><!DOCTYPE svg PUBLIC "-//W3C//DTD SVG 1.1//EN" "http://www.w3.org/Graphics/SVG/1.1/DTD/svg11.dtd"><svg t="1604818048833" class="icon" viewBox="0 0 1024 1024" version="1.1" xmlns="http://www.w3.org/2000/svg" p-id="19962" xmlns:xlink="http://www.w3.org/1999/xlink" width="200" height="200"><defs><style type="text/css"></style></defs><path d="M349.090909 442.181818h-232.727273c-51.2 0-93.090909-41.890909-93.090909-93.090909v-232.727273c0-51.2 41.890909-93.090909 93.090909-93.090909h232.727273c51.2 0 93.090909 41.890909 93.090909 93.090909v232.727273c0 51.2-41.890909 93.090909-93.090909 93.090909z m-232.727273-372.363636c-27.927273 0-46.545455 18.618182-46.545454 46.545454v232.727273c0 27.927273 18.618182 46.545455 46.545454 46.545455h232.727273c27.927273 0 46.545455-18.618182 46.545455-46.545455v-232.727273c0-27.927273-18.618182-46.545455-46.545455-46.545454h-232.727273zM349.090909 1000.727273h-232.727273c-51.2 0-93.090909-41.890909-93.090909-93.090909v-232.727273c0-51.2 41.890909-93.090909 93.090909-93.090909h232.727273c51.2 0 93.090909 41.890909 93.090909 93.090909v232.727273c0 51.2-41.890909 93.090909-93.090909 93.090909z m-232.727273-372.363637c-27.927273 0-46.545455 18.618182-46.545454 46.545455v232.727273c0 27.927273 18.618182 46.545455 46.545454 46.545454h232.727273c27.927273 0 46.545455-18.618182 46.545455-46.545454v-232.727273c0-27.927273-18.618182-46.545455-46.545455-46.545455h-232.727273zM907.636364 442.181818h-232.727273c-51.2 0-93.090909-41.890909-93.090909-93.090909v-232.727273c0-51.2 41.890909-93.090909 93.090909-93.090909h232.727273c51.2 0 93.090909 41.890909 93.090909 93.090909v232.727273c0 51.2-41.890909 93.090909-93.090909 93.090909z m-232.727273-372.363636c-27.927273 0-46.545455 18.618182-46.545455 46.545454v232.727273c0 27.927273 18.618182 46.545455 46.545455 46.545455h232.727273c27.927273 0 46.545455-18.618182 46.545454-46.545455v-232.727273c0-27.927273-18.618182-46.545455-46.545454-46.545454h-232.727273zM907.636364 1000.727273h-232.727273c-51.2 0-93.090909-41.890909-93.090909-93.090909v-232.727273c0-51.2 41.890909-93.090909 93.090909-93.090909h232.727273c51.2 0 93.090909 41.890909 93.090909 93.090909v232.727273c0 51.2-41.890909 93.090909-93.090909 93.090909z m-232.727273-372.363637c-27.927273 0-46.545455 18.618182-46.545455 46.545455v232.727273c0 27.927273 18.618182 46.545455 46.545455 46.545454h232.727273c27.927273 0 46.545455-18.618182 46.545454-46.545454v-232.727273c0-27.927273-18.618182-46.545455-46.545454-46.545455h-232.727273z" fill="#6C7680" p-id="19963"></path></svg>