<?xml version="1.0" standalone="no"?><!DOCTYPE svg PUBLIC "-//W3C//DTD SVG 1.1//EN" "http://www.w3.org/Graphics/SVG/1.1/DTD/svg11.dtd"><svg t="1604817998324" class="icon" viewBox="0 0 1024 1024" version="1.1" xmlns="http://www.w3.org/2000/svg" p-id="14839" xmlns:xlink="http://www.w3.org/1999/xlink" width="200" height="200"><defs><style type="text/css"></style></defs><path d="M957.54369821 980.08619691c0 0-0.20375211-19.73363712-0.20375211-29.86649714 0-70.09987698-46.06649799-128.92704882-109.56016413-149.98332416l-0.97451463-1.88033707-206.94762382-59.71902236c-38.1015552-6.82859065-67.25084615-42.91824413-67.25084615-86.73183175 0-32.02393543 17.07555157-54.0302757 38.93635527-75.23674681l0 0c71.65537507-54.99431253 121.69910499-141.04852366 121.69910499-248.66315151 0-4.30206976-0.2957312-8.51798243-0.518111-12.74903096 0.10362197-2.77102251 0.82548509-5.3639077 0.82548508-8.18615865 0-123.79017899-100.55783538-224.17802695-224.60415886-224.17802695-124.04515954 0-224.60648675 100.38901191-224.60648675 224.17802695 0 2.82108701 0.72768398 5.41397219 0.82897806 8.20595143-0.22354489 4.23104853-0.52393301 8.42716729-0.52393301 12.72923818 0 107.61579179 52.25006877 194.85059869 121.69561202 248.66315151l0 0c23.24165746 15.43040227 38.93868317 43.21281138 38.93868316 75.23674681 0 43.8194085-29.15511296 79.90789803-67.2496822 86.73183175l-206.94529594 59.71902236-0.97451462 1.88033707c-63.49366613 21.05627648-109.55667115 79.88344832-109.55667115 149.98332416 0 10.13868089-0.20840903 29.86649714-0.20840903 29.86649714L3.59251854 980.08619691c0 0-16.55045461-148.75382898 107.25020331-213.75991467 122.18578034-64.16313571 277.07427954-66.18435243 277.07427954-114.99043613 0-38.65808896-53.27814201-49.65834866-91.31216782-108.32251904-19.07930339-29.43570717-64.90362766-73.35058773-70.10802688-227.51722496C220.9093541 150.16504093 340.4428709 27.39711317 509.74417806 27.39711317c182.91075299 0 282.83754041 144.90816171 282.83754041 288.09898894 0 143.18384128-57.74204928 229.1553883-100.87568725 265.83650304-43.12548921 36.67645895-90.0558939 75.07258027-24.17076565 103.2531786 45.52975815 19.47283456 210.34154439 50.1531739 281.59873024 108.92795222 71.2560219 58.77361437 72.37490915 160.44218709 67.78176512 186.57246094L957.54369821 980.08619691 957.54369821 980.08619691zM957.54369821 980.08619691" fill="#2c2c2c" p-id="14840"></path></svg>